<svg width="14" height="14" viewBox="0 0 14 14" fill="none" xmlns="http://www.w3.org/2000/svg">
<path d="M7.0005 8.05375L1.9275 13.127C1.789 13.2653 1.61492 13.3362 1.40525 13.3395C1.19575 13.3427 1.0185 13.2718 0.8735 13.127C0.728667 12.982 0.65625 12.8063 0.65625 12.6C0.65625 12.3937 0.728667 12.218 0.8735 12.073L5.94675 7L0.8735 1.927C0.735167 1.7885 0.664333 1.61441 0.661 1.40475C0.657833 1.19525 0.728667 1.018 0.8735 0.872997C1.0185 0.728163 1.19417 0.655746 1.4005 0.655746C1.60683 0.655746 1.7825 0.728163 1.9275 0.872997L7.0005 5.94625L12.0735 0.872997C12.212 0.734663 12.3861 0.66383 12.5958 0.660497C12.8053 0.65733 12.9825 0.728163 13.1275 0.872997C13.2723 1.018 13.3448 1.19366 13.3448 1.4C13.3448 1.60633 13.2723 1.782 13.1275 1.927L8.05425 7L13.1275 12.073C13.2658 12.2115 13.3367 12.3856 13.34 12.5952C13.3432 12.8047 13.2723 12.982 13.1275 13.127C12.9825 13.2718 12.8068 13.3442 12.6005 13.3442C12.3942 13.3442 12.2185 13.2718 12.0735 13.127L7.0005 8.05375Z" fill="white" fill-opacity="0.9"/>
</svg>
