<svg width="100%" height="100%" viewBox="0 0 16 10" fill="none" xmlns="http://www.w3.org/2000/svg">
<path d="M1.54102 9.42233C1.36393 9.42233 1.21553 9.3624 1.09581 9.24254C0.975946 9.12281 0.916016 8.97434 0.916016 8.79712C0.916016 8.62004 0.975946 8.47163 1.09581 8.35191C1.21553 8.23233 1.36393 8.17254 1.54102 8.17254H14.4577C14.6348 8.17254 14.7832 8.2324 14.9029 8.35212C15.0228 8.47198 15.0827 8.62052 15.0827 8.79774C15.0827 8.97483 15.0228 9.12323 14.9029 9.24295C14.7832 9.36254 14.6348 9.42233 14.4577 9.42233H1.54102ZM1.54102 5.35191C1.36393 5.35191 1.21553 5.29198 1.09581 5.17212C0.975946 5.05226 0.916016 4.90379 0.916016 4.7267C0.916016 4.54948 0.975946 4.40108 1.09581 4.28149C1.21553 4.16177 1.36393 4.10191 1.54102 4.10191H14.4577C14.6348 4.10191 14.7832 4.16184 14.9029 4.2817C15.0228 4.40156 15.0827 4.55004 15.0827 4.72712C15.0827 4.90434 15.0228 5.05274 14.9029 5.17233C14.7832 5.29205 14.6348 5.35191 14.4577 5.35191H1.54102ZM1.54102 1.28129C1.36393 1.28129 1.21553 1.22142 1.09581 1.1017C0.975946 0.981841 0.916016 0.833299 0.916016 0.656077C0.916016 0.478994 0.975946 0.330591 1.09581 0.210869C1.21553 0.0912855 1.36393 0.0314941 1.54102 0.0314941H14.4577C14.6348 0.0314941 14.7832 0.0914248 14.9029 0.211286C15.0228 0.331008 15.0827 0.47948 15.0827 0.656703C15.0827 0.833786 15.0228 0.982189 14.9029 1.10191C14.7832 1.22149 14.6348 1.28129 14.4577 1.28129H1.54102Z" fill="white" fill-opacity="0.9"/>
</svg>
